<svg xmlns="http://www.w3.org/2000/svg" width="128" height="128" viewBox="0 0 128 128">
  <title>SMART TV</title>
  <g>
    <g>
      <rect x="24.651" y="31.522" width="78.698" height="54.467" fill="#8299fd"/>
      <rect x="24.651" y="31.647" width="78.698" height="45.881" fill="#d2ddff"/>
      <path d="M76.279,49.783a1.746,1.746,0,0,1-1.237-.512,15.613,15.613,0,0,0-22.084,0A1.75,1.75,0,0,1,50.483,46.8a19.112,19.112,0,0,1,27.033,0,1.75,1.75,0,0,1-1.237,2.987Z" fill="#ff7eb7"/>
      <path d="M71.912,54.15a1.744,1.744,0,0,1-1.237-.512,9.452,9.452,0,0,0-13.35,0,1.75,1.75,0,0,1-2.475-2.475,12.954,12.954,0,0,1,18.3,0,1.75,1.75,0,0,1-1.237,2.987Z" fill="#ff7eb7"/>
      <circle cx="64" cy="60.312" r="4.62" fill="#ffa7ce"/>
    </g>
    <g>
      <path d="M76.279,49.783A1.75,1.75,0,0,0,77.517,46.8a19.113,19.113,0,0,0-27.034,0,1.75,1.75,0,0,0,2.475,2.475,15.613,15.613,0,0,1,22.084,0A1.746,1.746,0,0,0,76.279,49.783Z" fill="#3536c0"/>
      <path d="M71.912,54.15a1.75,1.75,0,0,0,1.237-2.987,12.953,12.953,0,0,0-18.3,0,1.75,1.75,0,0,0,2.474,2.475,9.452,9.452,0,0,1,13.35,0A1.746,1.746,0,0,0,71.912,54.15Z" fill="#3536c0"/>
      <path d="M64,63.183a1.75,1.75,0,1,0,0,3.5,6.37,6.37,0,1,0-6.37-6.37,1.75,1.75,0,0,0,3.5,0A2.869,2.869,0,1,1,64,63.183Z" fill="#3536c0"/>
      <path d="M103.349,69.25A1.749,1.749,0,0,0,101.6,71v4.778H31.167a1.75,1.75,0,0,0,0,3.5H101.6v4.961H26.4V33.272H36.25a1.75,1.75,0,0,0,0-3.5h-11.6a1.751,1.751,0,0,0-1.75,1.75V85.989a1.75,1.75,0,0,0,1.75,1.75h37.6v3.87L40.912,94.746a1.75,1.75,0,1,0,.51,3.463l22.833-3.356c.006,0,.011-.008.018-.009a1.746,1.746,0,0,0,1.477-1.723V87.739h37.6a1.75,1.75,0,0,0,1.75-1.75V71A1.75,1.75,0,0,0,103.349,69.25Z" fill="#3536c0"/>
      <path d="M103.349,62.625a1.749,1.749,0,0,0-1.75,1.75v.813a1.75,1.75,0,0,0,3.5,0v-.813A1.75,1.75,0,0,0,103.349,62.625Z" fill="#3536c0"/>
      <path d="M103.349,29.772H51.722a1.75,1.75,0,0,0,0,3.5H101.6V58.756a1.75,1.75,0,1,0,3.5,0V31.522A1.751,1.751,0,0,0,103.349,29.772Z" fill="#3536c0"/>
      <path d="M43.625,33.272H44.75a1.75,1.75,0,0,0,0-3.5H43.625a1.75,1.75,0,0,0,0,3.5Z" fill="#3536c0"/>
      <path d="M87.094,94.747l-17.262-2.6a1.75,1.75,0,1,0-.521,3.46l17.261,2.6a1.673,1.673,0,0,0,.263.02,1.75,1.75,0,0,0,.259-3.481Z" fill="#3536c0"/>
    </g>
  </g>
</svg>
