<?xml version="1.0" encoding="iso-8859-1"?>
<!-- Generator: Adobe Illustrator 19.0.0, SVG Export Plug-In . SVG Version: 6.00 Build 0)  -->
<svg xmlns="http://www.w3.org/2000/svg" xmlns:xlink="http://www.w3.org/1999/xlink" version="1.1" id="Capa_1" x="0px" y="0px" viewBox="0 0 512 512" style="enable-background:new 0 0 512 512;" xml:space="preserve">
<path style="fill:#FF7040;" d="M447.473,287.129L423.605,97.227L367,129.5L256,7.5L226,256l30,248.5c106.591,0,193-86.409,193-193  C449,303.245,448.479,295.111,447.473,287.129z"/>
<path style="fill:#FF903D;" d="M145,129.5L88.395,97.227L64.527,287.129C63.521,295.111,63,303.245,63,311.5  c0,106.591,86.409,193,193,193V7.5L145,129.5z"/>
<path style="fill:#FF3744;" d="M417.708,290.87l-18.267-145.333l-38.459,21.927L256,52.078V474.5c89.878,0,163-73.122,163-163  C419,304.616,418.565,297.678,417.708,290.87z"/>
<path style="fill:#FF4F42;" d="M387.946,290.87l-11.773-114.8l-18.199,10.376L256,52.078L196,256l60,218.5  c73.336,0,133-73.122,133-163C389,304.616,388.645,297.678,387.946,290.87z"/>
<path style="fill:#FF7040;" d="M151.018,167.464l-38.459-21.927L94.291,290.879C93.435,297.678,93,304.616,93,311.5  c0,89.878,73.122,163,163,163V52.078L151.018,167.464z"/>
<path style="fill:#FFC46C;" d="M338.056,249.245L256,141.235V414.5c56.885,0,103-46.115,103-103  C359,288.106,351.196,266.538,338.056,249.245z"/>
<path style="fill:#FFD89D;" d="M329,311.5c0-23.394-5.531-44.962-14.844-62.255L256,141.235l-82.056,108.01  C160.804,266.538,153,288.106,153,311.5c0,56.885,46.115,103,103,103C296.317,414.5,329,368.385,329,311.5z"/>
<path d="M431.047,96.292c-0.313-2.486-1.846-4.652-4.086-5.772s-4.892-1.049-7.07,0.192l-51.386,29.297L261.548,2.453  C260.126,0.891,258.112,0,256,0s-4.126,0.891-5.547,2.453L143.496,120.009L92.109,90.711c-2.178-1.241-4.831-1.313-7.07-0.192  c-2.241,1.121-3.774,3.287-4.086,5.772l-23.868,189.9c-1.052,8.348-1.585,16.862-1.585,25.309C55.5,422.056,145.444,512,256,512  s200.5-89.944,200.5-200.5c0-8.446-0.533-16.961-1.585-25.307L431.047,96.292z M256,497c-102.285,0-185.5-83.215-185.5-185.5  c0-7.821,0.494-15.706,1.468-23.436l22.468-178.76l46.85,26.711c3.05,1.738,6.9,1.129,9.262-1.468L256,18.645l105.452,115.903  c2.362,2.597,6.212,3.207,9.263,1.468l46.85-26.711l22.468,178.762c0.974,7.728,1.468,15.612,1.468,23.434  C441.5,413.785,358.285,497,256,497z"/>
<path d="M331.624,228.381c-2.504-3.297-7.209-3.941-10.509-1.435c-3.298,2.506-3.94,7.211-1.435,10.509l12.403,16.328  c12.702,16.716,19.416,36.675,19.416,57.717c0,52.659-42.841,95.5-95.5,95.5s-95.5-42.841-95.5-95.5  c0-21.043,6.714-41.001,19.416-57.718L256,153.633l45.431,59.8c2.506,3.298,7.21,3.941,10.509,1.435  c3.298-2.506,3.94-7.211,1.435-10.509l-51.402-67.661c-1.418-1.867-3.627-2.963-5.972-2.963c-2.344,0-4.554,1.096-5.972,2.963  l-82.056,108.01C153.271,264.056,145.5,287.152,145.5,311.5c0,60.93,49.57,110.5,110.5,110.5s110.5-49.57,110.5-110.5  c0-24.348-7.771-47.444-22.472-66.792L331.624,228.381z"/>
<g>
</g>
<g>
</g>
<g>
</g>
<g>
</g>
<g>
</g>
<g>
</g>
<g>
</g>
<g>
</g>
<g>
</g>
<g>
</g>
<g>
</g>
<g>
</g>
<g>
</g>
<g>
</g>
<g>
</g>
</svg>
