<svg id="Layer_1" data-name="Layer 1" xmlns="http://www.w3.org/2000/svg" viewBox="0 0 128 128"><title>SPOTLIGHT</title><polygon points="11.545 9.5 33.872 55.624 94.128 55.624 116.455 9.5 11.545 9.5" style="fill:#fdedac"/><path d="M102.072,80.7a2.445,2.445,0,1,1,2.444-2.445A2.447,2.447,0,0,1,102.072,80.7Z" style="fill:#fd852b"/><path d="M102.072,90.146a2.445,2.445,0,1,1,2.444-2.445A2.448,2.448,0,0,1,102.072,90.146Z" style="fill:#fd852b"/><path d="M97.351,85.424a2.445,2.445,0,1,1,2.444-2.445A2.448,2.448,0,0,1,97.351,85.424Z" style="fill:#fd852b"/><path d="M106.793,85.424a2.445,2.445,0,1,1,2.445-2.445A2.447,2.447,0,0,1,106.793,85.424Z" style="fill:#fd852b"/><path d="M32.285,12.64a2.445,2.445,0,1,1,2.445-2.445A2.447,2.447,0,0,1,32.285,12.64Z" style="fill:#fd852b"/><path d="M32.285,22.083a2.445,2.445,0,1,1,2.445-2.445A2.447,2.447,0,0,1,32.285,22.083Z" style="fill:#fd852b"/><path d="M27.564,17.361a2.445,2.445,0,1,1,2.444-2.445A2.448,2.448,0,0,1,27.564,17.361Z" style="fill:#fd852b"/><path d="M37.007,17.361a2.445,2.445,0,1,1,2.445-2.445A2.447,2.447,0,0,1,37.007,17.361Z" style="fill:#fd852b"/><rect x="24.468" y="103.905" width="5.939" height="5.939" transform="translate(-67.536 50.706) rotate(-45.001)" style="fill:#fd748c"/><path d="M85.128,73.608H42.872V97.372A21.128,21.128,0,0,0,64,118.5h0A21.128,21.128,0,0,0,85.128,97.372Z" style="fill:#2ec3fc"/><polygon points="94.128 55.624 33.872 55.624 42.872 73.608 85.128 73.608 94.128 55.624" style="fill:#fd748c"/><path d="M64,48a1.75,1.75,0,0,1-1.75-1.75V32.562a1.75,1.75,0,0,1,3.5,0V46.25A1.75,1.75,0,0,1,64,48Z" style="fill:#fd852b"/><path d="M47.427,48a1.751,1.751,0,0,1-1.65-1.168L41.222,33.925a1.75,1.75,0,0,1,3.3-1.165l4.555,12.908A1.751,1.751,0,0,1,47.427,48Z" style="fill:#fd852b"/><path d="M80.573,48a1.751,1.751,0,0,1-1.65-2.333L83.477,32.76a1.75,1.75,0,0,1,3.3,1.165L82.224,46.833A1.751,1.751,0,0,1,80.573,48Z" style="fill:#fd852b"/><path d="M51.5,97.8a1.75,1.75,0,0,1-1.75-1.75V82.5a1.75,1.75,0,0,1,3.5,0V96.054A1.75,1.75,0,0,1,51.5,97.8Z" style="fill:#feded6"/><path d="M59.333,97.8a1.75,1.75,0,0,1-1.75-1.75V82.5a1.75,1.75,0,0,1,3.5,0V96.054A1.75,1.75,0,0,1,59.333,97.8Z" style="fill:#feded6"/><polygon points="78.823 55.624 70.833 73.608 85.128 73.608 94.128 55.624 78.823 55.624" style="fill:#ec4d85"/><path d="M85.128,97.372V73.61H70.833v30.62A18.32,18.32,0,0,1,64,118.5h0A21.128,21.128,0,0,0,85.128,97.372Z" style="fill:#1ba4fc"/></svg>